<?xml version="1.0" encoding="UTF-8"?>
<svg width="1024" height="1024" viewBox="0 0 1024 1024" fill="none" xmlns="http://www.w3.org/2000/svg">
  <defs>
    <linearGradient id="bgGradient" x1="0" y1="0" x2="1024" y2="1024" gradientUnits="userSpaceOnUse">
      <stop stop-color="#7C3AED" />
      <stop offset="1" stop-color="#fff" />
    </linearGradient>
  </defs>
  <rect width="1024" height="1024" rx="220" fill="url(#bgGradient)" />
  <g>
    <path d="M512 256c-44.18 0-80 35.82-80 80v352c0 17.67 21.5 27.04 34.13 14.13l45.87-45.87 45.87 45.87c12.63 12.91 34.13 3.54 34.13-14.13V336c0-44.18-35.82-80-80-80zm0 32c26.47 0 48 21.53 48 48v320.69l-32.87-32.87c-12.63-12.91-34.13-3.54-34.13 14.13V336c0-26.47 21.53-48 48-48z" fill="#fff"/>
  </g>
</svg>
